<svg width="110" height="26" viewBox="0 0 110 26" fill="none" xmlns="http://www.w3.org/2000/svg">
<path d="M5.26748 7.49511C4.88572 6.89674 5.11227 6.13161 5.7735 5.78614L11.1612 2.97128C11.8224 2.62582 12.6679 2.83083 13.0496 3.4292C13.4314 4.02757 13.2049 4.7927 12.5436 5.13816L7.15597 7.95301C6.49475 8.29851 5.64923 8.09349 5.26748 7.49511Z" fill="#37D5C7"/>
<path d="M9.07215 22.8423C8.69044 22.2439 8.91692 21.4788 9.57815 21.1333L14.9659 18.3184C15.6271 17.973 16.4725 18.178 16.8543 18.7763C17.2361 19.3747 17.0096 20.1398 16.3483 20.4853L10.9606 23.3002C10.2994 23.6457 9.45395 23.4406 9.07215 22.8423Z" fill="#37D5C7"/>
<path d="M11.8085 12.7448C11.4267 12.1465 11.6533 11.3813 12.3145 11.0358L19.7974 7.12631C20.4586 6.78085 21.3041 6.98587 21.6859 7.58422C22.0676 8.18259 21.8411 8.94773 21.1799 9.29316L13.697 13.2027C13.0358 13.5482 12.1902 13.3431 11.8085 12.7448Z" fill="#37D5C7"/>
<path d="M0.734275 18.5308C0.352516 17.9325 0.579069 17.1673 1.2403 16.8219L9.32177 12.5995C9.98301 12.2541 10.8285 12.4592 11.2102 13.0575C11.592 13.6558 11.3655 14.421 10.7042 14.7665L2.62277 18.9887C1.96154 19.3342 1.11604 19.1292 0.734275 18.5308Z" fill="#37D5C7"/>
<path d="M13.0273 7.77415C12.6455 7.1758 12.872 6.41067 13.5333 6.0652L15.0298 5.2833C15.6911 4.93783 16.5366 5.14284 16.9183 5.74121C17.3001 6.33958 17.0735 7.10471 16.4123 7.45019L14.9157 8.23205C14.2545 8.57755 13.409 8.37252 13.0273 7.77415Z" fill="#37D5C7"/>
<path d="M17.453 18.4635C17.0713 17.8652 17.2978 17.1 17.959 16.7545L19.4556 15.9726C20.1169 15.6271 20.9624 15.8322 21.3441 16.4305C21.7259 17.0289 21.4993 17.7941 20.8381 18.1395L19.3415 18.9214C18.6803 19.2668 17.8348 19.0618 17.453 18.4635Z" fill="#37D5C7"/>
<path d="M4.9042 20.6864C4.52244 20.0881 4.74899 19.3229 5.41022 18.9775L6.90679 18.1955C7.56801 17.85 8.41352 18.0551 8.79524 18.6534C9.17704 19.2518 8.95047 20.017 8.28924 20.3625L6.79269 21.1443C6.13147 21.4898 5.28595 21.2848 4.9042 20.6864Z" fill="#37D5C7"/>
<path d="M0.777244 9.84094C0.395485 9.24257 0.622037 8.47743 1.28327 8.132L2.77983 7.35007C3.44106 7.0046 4.28656 7.20962 4.66833 7.80797C5.05009 8.40634 4.82353 9.17148 4.1623 9.51691L2.66574 10.2988C2.00451 10.6443 1.159 10.4393 0.777244 9.84094Z" fill="#37D5C7"/>
<path d="M0.75576 14.1859C0.374 13.5875 0.600553 12.8224 1.26178 12.477L10.5405 7.62914C11.2018 7.28364 12.0472 7.48866 12.429 8.08704C12.8107 8.68541 12.5842 9.45055 11.923 9.79598L2.64425 14.6438C1.98303 14.9893 1.13752 14.7843 0.75576 14.1859Z" fill="#37D5C7"/>
<path d="M9.39244 18.3408C9.01073 17.7424 9.2373 16.9773 9.89853 16.6319L19.1773 11.784C19.8384 11.4385 20.6839 11.6436 21.0657 12.2419C21.4475 12.8403 21.2209 13.6055 20.5597 13.9509L11.281 18.7987C10.6198 19.1442 9.77424 18.9392 9.39244 18.3408Z" fill="#37D5C7"/>
<path fill-rule="evenodd" clip-rule="evenodd" d="M46.0165 19.6552C44.8674 19.0394 43.9578 18.1909 43.2919 17.1155L43.2894 17.1115C42.6386 16.0304 42.3184 14.802 42.3184 13.4367C42.3184 12.0598 42.619 10.8331 43.2334 9.7678L43.2345 9.76587C43.8631 8.69096 44.7274 7.84053 45.8249 7.22247C46.9297 6.60037 48.1962 6.29431 49.6112 6.29431C51.0056 6.29431 52.2381 6.59099 53.2926 7.19826C54.3577 7.78541 55.1801 8.60664 55.7563 9.65296C56.3323 10.699 56.6151 11.8824 56.6151 13.1943C56.6151 13.5389 56.4946 13.8502 56.2322 14.0924L56.2246 14.0995L56.2165 14.1061C55.9522 14.3257 55.6203 14.4215 55.259 14.4215H45.1184C45.2171 14.9493 45.3986 15.4309 45.6607 15.8688C46.0984 16.571 46.6865 17.1202 47.4285 17.5221C48.1635 17.9202 49.0183 18.1246 50.0052 18.1246C50.5882 18.1246 51.1739 18.0351 51.7637 17.854C52.3775 17.6547 52.8434 17.4169 53.1782 17.15L53.1864 17.1434C53.4474 16.9463 53.7528 16.8427 54.0885 16.8398C54.4204 16.8207 54.7301 16.9004 54.99 17.0924L55.0014 17.1008L55.012 17.1098C55.2965 17.3522 55.4808 17.6524 55.4854 18.005C55.5084 18.3615 55.3441 18.6637 55.0503 18.8902C54.4284 19.3769 53.6489 19.7762 52.7229 20.0946L52.7162 20.0969C51.7857 20.4 50.8813 20.5548 50.0052 20.5548C48.5258 20.5548 47.1947 20.2593 46.0232 19.6587L46.0165 19.6552ZM51.9093 9.29371C51.2863 8.91998 50.5266 8.72461 49.6112 8.72461C48.6805 8.72461 47.8825 8.92718 47.2026 9.32112C46.5174 9.71818 45.9808 10.2699 45.5923 10.9865C45.4083 11.3337 45.2688 11.7087 45.1748 12.1125H53.8386C53.7549 11.6729 53.6142 11.2641 53.4177 10.885C53.0639 10.2023 52.5628 9.67613 51.9132 9.29601L51.9093 9.29371Z" fill="white"/>
<path d="M62.332 7.00218L62.3352 7.00039C63.2414 6.51258 64.2415 6.27002 65.3265 6.27002C66.1611 6.27002 66.8589 6.37735 67.381 6.62789C67.6518 6.75788 67.879 6.93734 68.0119 7.18243C68.1469 7.43162 68.1599 7.7038 68.0898 7.97353L68.0875 7.98282C68 8.28516 67.8258 8.55809 67.5146 8.70502C67.268 8.82915 66.9831 8.86414 66.6896 8.84483L66.6873 8.84468C66.4627 8.82871 66.2025 8.81266 65.9066 8.79662L65.9004 8.79632L65.8942 8.7958C64.9643 8.71914 64.1534 8.81251 63.4518 9.06271L63.447 9.06442C62.7623 9.29953 62.2244 9.66153 61.8197 10.1488C61.4411 10.6253 61.245 11.1981 61.245 11.8851V19.1335C61.245 19.4962 61.1338 19.8295 60.8621 20.0802C60.5905 20.3309 60.2293 20.4335 59.8364 20.4335C59.4435 20.4335 59.0823 20.3309 58.8106 20.0802C58.539 19.8295 58.4277 19.4962 58.4277 19.1335V7.71546C58.4277 7.35288 58.539 7.01953 58.8106 6.76884C59.0823 6.51815 59.4435 6.41548 59.8364 6.41548C60.2293 6.41548 60.5905 6.51815 60.8621 6.76884C61.1338 7.01953 61.245 7.35288 61.245 7.71546V7.76137C61.5752 7.47225 61.9376 7.21902 62.332 7.00218Z" fill="white"/>
<path d="M70.4744 20.0806L70.4613 20.0673C70.2036 19.8057 70.0918 19.4737 70.0918 19.1094V13.21C70.0918 12.8474 70.2031 12.5141 70.4747 12.2633C70.7565 12.0033 71.1212 11.8857 71.5267 11.8857C71.9153 11.8857 72.2636 12.0039 72.5266 12.2632C72.8123 12.5103 72.9354 12.8428 72.9354 13.21V19.1094C72.9354 19.4837 72.8081 19.8203 72.5263 20.0803C72.259 20.327 71.9098 20.4336 71.5267 20.4336C71.132 20.4336 70.7723 20.3305 70.4889 20.0928L70.4744 20.0806Z" fill="white"/>
<path fill-rule="evenodd" clip-rule="evenodd" d="M97.1694 19.6295L97.1645 19.6272C96.0357 18.9953 95.1377 18.14 94.4736 17.067L94.4711 17.063C93.821 15.9833 93.5 14.7715 93.5 13.4367C93.5 12.0848 93.83 10.8633 94.4998 9.78214L94.5023 9.7782C95.1853 8.7041 96.1121 7.8571 97.2769 7.24232C98.4475 6.60818 99.7634 6.29431 101.213 6.29431C102.662 6.29431 103.97 6.60792 105.124 7.24293C106.289 7.85777 107.207 8.70514 107.872 9.77998C108.559 10.8598 108.907 12.0804 108.926 13.4319V13.4367V19.1336C108.926 19.4986 108.794 19.8245 108.517 20.0802L108.51 20.0866L108.503 20.0927C108.224 20.3268 107.876 20.4336 107.491 20.4336C107.107 20.4336 106.758 20.3268 106.479 20.0927L106.473 20.0866L106.465 20.0802C106.189 19.8245 106.056 19.4986 106.056 19.1336V18.6905C105.635 19.0771 105.158 19.4147 104.626 19.7029L104.623 19.7039C103.556 20.2741 102.345 20.5548 101.003 20.5548C99.5878 20.5548 98.3063 20.2488 97.1694 19.6295ZM103.707 17.4998L103.711 17.4978C104.452 17.0962 105.031 16.5479 105.451 15.8473L105.452 15.8449C105.888 15.1299 106.109 14.33 106.109 13.4367C106.109 12.526 105.887 11.7277 105.454 11.0315L105.451 11.0261C105.031 10.3255 104.452 9.77724 103.711 9.3755L103.702 9.37052C102.985 8.9589 102.16 8.74882 101.213 8.74882C100.286 8.74882 99.4581 8.95816 98.7209 9.37238L98.7152 9.37557C97.9722 9.77805 97.3837 10.328 96.9453 11.0315C96.5119 11.7277 96.291 12.526 96.291 13.4367C96.291 14.3294 96.511 15.1288 96.9461 15.8435C97.3845 16.5462 97.9722 17.0957 98.7152 17.4979C99.4531 17.8978 100.282 18.1003 101.213 18.1003C102.162 18.1003 102.99 17.8971 103.707 17.4998Z" fill="white"/>
<path d="M33.0453 19.5833L33.046 19.5848C33.1722 19.8367 33.343 20.052 33.5716 20.2044C33.8049 20.3599 34.0745 20.4336 34.3636 20.4336C34.6629 20.4336 34.9432 20.3635 35.1864 20.2099C35.427 20.058 35.6059 19.8402 35.7345 19.5833L41.4847 8.14624C41.64 7.85593 41.6503 7.54638 41.5258 7.24444C41.4001 6.92311 41.1582 6.68183 40.8253 6.52826L40.8146 6.52328L40.8035 6.5189C40.4648 6.38494 40.1098 6.3747 39.7585 6.48094C39.3946 6.57936 39.1296 6.80512 38.9794 7.12573L34.3703 16.4633L29.6873 7.10979L29.6814 7.09959C29.5154 6.81496 29.267 6.60465 28.942 6.48927C28.5945 6.36594 28.2396 6.39798 27.9068 6.5502C27.5697 6.69653 27.309 6.92323 27.1769 7.24017C27.0483 7.54876 27.0635 7.86507 27.2136 8.16518L33.0453 19.5833Z" fill="white"/>
<path fill-rule="evenodd" clip-rule="evenodd" d="M76.7171 17.0709C77.4005 18.1447 78.3264 18.9993 79.49 19.6299L79.4942 19.6322C80.6649 20.2496 81.9796 20.5548 83.4282 20.5548C84.859 20.5548 86.1569 20.2493 87.3102 19.6316C88.4751 19.0172 89.3937 18.1782 90.0611 17.1185C90.7457 16.0415 91.1044 14.839 91.1414 13.5191V2.06703C91.1414 1.69688 91.0158 1.36188 90.7252 1.11416C90.4493 0.862665 90.0988 0.742798 89.7064 0.742798C89.314 0.742798 88.9635 0.862673 88.6869 1.11417C88.3963 1.36189 88.2715 1.69689 88.2715 2.06703V8.16112C87.788 7.72001 87.2257 7.34668 86.5878 7.04113C85.5781 6.541 84.4519 6.29428 83.2181 6.29428C81.8014 6.29428 80.519 6.60903 79.382 7.24498C78.2518 7.861 77.3529 8.7089 76.6883 9.7821L76.686 9.78604C76.0359 10.8658 75.7148 12.0776 75.7148 13.4124C75.7148 14.7643 76.0452 15.9859 76.7146 17.067L76.7171 17.0709ZM87.669 11.0314C88.1032 11.7286 88.324 12.5191 88.324 13.4124C88.324 14.3231 88.1024 15.1215 87.669 15.8177L87.6657 15.823C87.2454 16.5243 86.6658 17.0819 85.9213 17.5002C85.2038 17.8973 84.3772 18.1002 83.4282 18.1002C82.499 18.1002 81.6705 17.8983 80.9329 17.4993C80.1881 17.0805 79.5987 16.5215 79.1606 15.8177C78.7273 15.1215 78.5059 14.3231 78.5059 13.4124C78.5059 12.5191 78.7266 11.7286 79.1606 11.0314L79.1624 11.0285C79.6009 10.3091 80.1892 9.75254 80.9301 9.35125C81.6683 8.95137 82.4973 8.74879 83.4282 8.74879C84.3772 8.74879 85.2046 8.95196 85.9221 9.34939L85.9262 9.35125C86.665 9.7518 87.2437 10.3067 87.664 11.0232L87.669 11.0314Z" fill="white"/>
<path d="M70.4743 10.4236L70.4612 10.4102C70.2035 10.1486 70.0918 9.81656 70.0918 9.45234V8.01001C70.0918 7.64742 70.203 7.31409 70.4747 7.0634C70.7565 6.80336 71.1211 6.68579 71.5267 6.68579C71.9153 6.68579 72.2636 6.804 72.5265 7.06326C72.8122 7.31036 72.9354 7.64289 72.9354 8.01001V9.45234C72.9354 9.82659 72.808 10.1632 72.5262 10.4232C72.2589 10.6699 71.9098 10.7766 71.5267 10.7766C71.132 10.7766 70.7722 10.6734 70.4889 10.4357L70.4743 10.4236Z" fill="#37D5C7"/>
</svg>
