<?xml version="1.0" encoding="UTF-8" standalone="no"?><!-- Generator: Gravit.io --><svg xmlns="http://www.w3.org/2000/svg" xmlns:xlink="http://www.w3.org/1999/xlink" style="isolation:isolate" viewBox="0 0 26 28" width="26pt" height="28pt"><defs><clipPath id="_clipPath_yaYgWXocZT3zsYea2pKHKzytqxd6TgDi"><rect width="26" height="28"/></clipPath></defs><g clip-path="url(#_clipPath_yaYgWXocZT3zsYea2pKHKzytqxd6TgDi)"><g opacity="0.69"><linearGradient id="_lgradient_61" x1="0" y1="0.5" x2="1" y2="0.5" gradientTransform="matrix(9.635,0,0,6.953,6.005,0.666)" gradientUnits="userSpaceOnUse"><stop offset="0%" stop-opacity="1" style="stop-color:rgb(0,255,242)"/><stop offset="100%" stop-opacity="1" style="stop-color:rgb(0,0,0)"/></linearGradient><path d=" M 6.224 6.801 C 5.773 6.019 6.041 5.018 6.822 4.566 L 13.189 0.885 C 13.971 0.434 14.97 0.702 15.421 1.484 C 15.872 2.267 15.605 3.267 14.823 3.719 L 8.456 7.4 C 7.674 7.852 6.675 7.584 6.224 6.801 Z " fill="url(#_lgradient_61)"/></g><g opacity="0.74"><linearGradient id="_lgradient_62" x1="0" y1="0.5" x2="1" y2="0.5" gradientTransform="matrix(9.635,0,0,6.953,10.502,20.735)" gradientUnits="userSpaceOnUse"><stop offset="0%" stop-opacity="1" style="stop-color:rgb(0,255,242)"/><stop offset="100%" stop-opacity="1" style="stop-color:rgb(0,0,0)"/></linearGradient><path d=" M 10.721 26.87 C 10.27 26.088 10.538 25.087 11.319 24.636 L 17.686 20.955 C 18.468 20.503 19.467 20.771 19.918 21.553 C 20.369 22.336 20.102 23.336 19.32 23.788 L 12.953 27.469 C 12.172 27.921 11.172 27.653 10.721 26.87 Z " fill="url(#_lgradient_62)"/></g><g opacity="0.74"><linearGradient id="_lgradient_63" x1="0" y1="0.5" x2="1" y2="0.5" gradientTransform="matrix(12.112,0,0,8.385,13.736,6.099)" gradientUnits="userSpaceOnUse"><stop offset="0%" stop-opacity="1" style="stop-color:rgb(0,255,242)"/><stop offset="100%" stop-opacity="1" style="stop-color:rgb(0,0,0)"/></linearGradient><path d=" M 13.956 13.666 C 13.504 12.884 13.772 11.883 14.554 11.431 L 23.397 6.319 C 24.178 5.867 25.178 6.135 25.629 6.918 C 26.08 7.7 25.812 8.701 25.031 9.152 L 16.187 14.265 C 15.406 14.717 14.407 14.449 13.956 13.666 Z " fill="url(#_lgradient_63)"/></g><path d=" M 0.868 21.232 C 0.416 20.45 0.684 19.449 1.466 18.998 L 11.017 13.476 C 11.798 13.024 12.797 13.292 13.248 14.075 C 13.7 14.857 13.432 15.858 12.65 16.31 L 3.099 21.831 C 2.318 22.283 1.319 22.015 0.868 21.232 Z " fill="rgb(255,255,255)"/><g opacity="0.75"><linearGradient id="_lgradient_64" x1="0" y1="0.5" x2="1" y2="0.5" gradientTransform="matrix(5.037,0,0,4.295,15.176,3.689)" gradientUnits="userSpaceOnUse"><stop offset="2.1739130434782608%" stop-opacity="1" style="stop-color:rgb(0,204,255)"/><stop offset="99.56521739130434%" stop-opacity="1" style="stop-color:rgb(0,0,0)"/><stop offset="100%" stop-opacity="1" style="stop-color:rgb(255,255,255)"/><stop offset="100%" stop-opacity="1" style="stop-color:rgb(0,0,0)"/></linearGradient><path d=" M 15.396 7.166 C 14.944 6.384 15.212 5.383 15.994 4.931 L 17.762 3.909 C 18.544 3.457 19.543 3.725 19.994 4.508 C 20.445 5.29 20.177 6.291 19.396 6.742 L 17.627 7.765 C 16.846 8.217 15.847 7.949 15.396 7.166 Z " fill="url(#_lgradient_64)"/></g><g opacity="0.66"><linearGradient id="_lgradient_65" x1="0" y1="0.5" x2="1" y2="0.5" gradientTransform="matrix(5.037,0,0,4.295,20.406,17.667)" gradientUnits="userSpaceOnUse"><stop offset="0%" stop-opacity="1" style="stop-color:rgb(0,255,242)"/><stop offset="100%" stop-opacity="1" style="stop-color:rgb(0,0,0)"/></linearGradient><path d=" M 20.625 21.144 C 20.174 20.362 20.442 19.361 21.223 18.909 L 22.992 17.887 C 23.774 17.435 24.773 17.703 25.224 18.486 C 25.675 19.268 25.407 20.269 24.626 20.721 L 22.857 21.743 C 22.076 22.195 21.077 21.927 20.625 21.144 Z " fill="url(#_lgradient_65)"/></g><g opacity="0.74"><linearGradient id="_lgradient_66" x1="0" y1="0.5" x2="1" y2="0.5" gradientTransform="matrix(5.037,0,0,4.295,5.576,20.574)" gradientUnits="userSpaceOnUse"><stop offset="0%" stop-opacity="1" style="stop-color:rgb(0,255,242)"/><stop offset="100%" stop-opacity="1" style="stop-color:rgb(0,0,0)"/></linearGradient><path d=" M 5.795 24.051 C 5.344 23.269 5.611 22.268 6.393 21.816 L 8.162 20.794 C 8.943 20.342 9.942 20.61 10.393 21.393 C 10.845 22.175 10.577 23.176 9.795 23.628 L 8.027 24.65 C 7.245 25.102 6.246 24.834 5.795 24.051 Z " fill="url(#_lgradient_66)"/></g><g opacity="0.74"><linearGradient id="_lgradient_67" x1="0" y1="0.5" x2="1" y2="0.5" gradientTransform="matrix(5.037,0,0,4.295,0.699,6.392)" gradientUnits="userSpaceOnUse"><stop offset="0%" stop-opacity="1" style="stop-color:rgb(0,255,242)"/><stop offset="100%" stop-opacity="1" style="stop-color:rgb(0,0,0)"/></linearGradient><path d=" M 0.918 9.869 C 0.467 9.086 0.735 8.086 1.516 7.634 L 3.285 6.611 C 4.067 6.16 5.066 6.428 5.517 7.21 C 5.968 7.993 5.7 8.993 4.919 9.445 L 3.15 10.467 C 2.369 10.919 1.37 10.651 0.918 9.869 Z " fill="url(#_lgradient_67)"/></g><g opacity="0.74"><linearGradient id="_lgradient_68" x1="0" y1="0.5" x2="1" y2="0.5" gradientTransform="matrix(14.234,0,0,9.612,0.673,6.757)" gradientUnits="userSpaceOnUse"><stop offset="2.1739130434782608%" stop-opacity="1" style="stop-color:rgb(0,204,255)"/><stop offset="99.56521739130434%" stop-opacity="1" style="stop-color:rgb(0,0,0)"/><stop offset="100%" stop-opacity="1" style="stop-color:rgb(255,255,255)"/><stop offset="100%" stop-opacity="1" style="stop-color:rgb(0,0,0)"/></linearGradient><path d=" M 0.893 15.551 C 0.441 14.768 0.709 13.768 1.491 13.316 L 12.456 6.976 C 13.238 6.525 14.237 6.793 14.688 7.575 C 15.139 8.358 14.872 9.358 14.09 9.81 L 3.124 16.149 C 2.343 16.601 1.344 16.333 0.893 15.551 Z " fill="url(#_lgradient_68)"/></g><path d=" M 11.101 20.984 C 10.649 20.201 10.917 19.201 11.699 18.749 L 22.664 12.41 C 23.446 11.958 24.445 12.226 24.896 13.009 C 25.347 13.791 25.08 14.791 24.298 15.243 L 13.332 21.583 C 12.551 22.034 11.552 21.766 11.101 20.984 Z " fill="rgb(255,255,255)"/></g></svg>